<svg width="79" height="39" viewBox="0 0 79 39" fill="none" xmlns="http://www.w3.org/2000/svg">
<path fill-rule="evenodd" clip-rule="evenodd" d="M47.425 26.4569C43.6067 29.2409 38.0543 30.7274 33.2801 30.7274C26.5861 30.7274 20.5591 28.2834 16.0001 24.217C15.642 23.8972 15.9626 23.4617 16.3925 23.71C21.3129 26.5375 27.3965 28.2373 33.6803 28.2373C37.9187 28.2373 42.581 27.3715 46.8681 25.5749C47.5159 25.3032 48.057 25.9935 47.4237 26.4576L47.425 26.4569ZM49.0156 24.661C48.5284 24.0435 45.7897 24.3698 44.5507 24.5141C44.1755 24.5596 44.1182 24.2365 44.4559 24.0045C46.6416 22.4848 50.2295 22.9235 50.6489 23.4325C51.0682 23.9414 50.5403 27.495 48.4856 29.1902C48.1696 29.4502 47.8694 29.3117 48.0096 28.9666C48.4705 27.8291 49.5054 25.2798 49.0156 24.6603" fill="#FF9900"/>
<path fill-rule="evenodd" clip-rule="evenodd" d="M44.637 13.2775V11.8007C44.6356 11.7513 44.6445 11.7021 44.663 11.6561C44.6815 11.6102 44.7094 11.5685 44.7448 11.5335C44.7802 11.4985 44.8225 11.471 44.869 11.4527C44.9156 11.4344 44.9654 11.4257 45.0155 11.427H51.7121C51.9267 11.427 52.0992 11.5797 52.0992 11.8007V13.065C52.0965 13.2769 51.9148 13.5544 51.5949 13.9932L48.1255 18.8851C49.4158 18.8539 50.7759 19.0437 51.9451 19.6943C52.2084 19.8412 52.2743 20.0564 52.3006 20.2689V21.8452C52.3006 22.0597 52.0597 22.3119 51.8069 22.1819C49.7463 21.1159 47.0096 20.9989 44.7318 22.1929C44.4994 22.3177 44.2558 22.0681 44.2558 21.8536V20.3567C44.2558 20.1162 44.2584 19.7067 44.502 19.3407L48.5224 13.648H45.03C44.8154 13.648 44.6429 13.4985 44.6429 13.2775H44.637ZM20.2069 22.4932H18.17C17.9751 22.4789 17.8211 22.3346 17.8059 22.1507V11.8261C17.8059 11.6194 17.981 11.4556 18.1983 11.4556H20.0982C20.2957 11.464 20.4537 11.6142 20.4682 11.8001V13.1495H20.5058C21.0015 11.8449 21.933 11.2365 23.1878 11.2365C24.463 11.2365 25.2596 11.8449 25.833 13.1495C26.3267 11.8449 27.4459 11.2365 28.6474 11.2365C29.5012 11.2365 30.4354 11.5843 31.0055 12.3656C31.6507 13.234 31.519 14.4963 31.519 15.6026L31.5144 22.1195C31.5144 22.3262 31.3393 22.4932 31.122 22.4932H29.0812C28.8837 22.4789 28.7145 22.3177 28.7145 22.1195V16.64C28.7145 16.2045 28.754 15.1177 28.6572 14.7049C28.5058 14.012 28.0496 13.8164 27.4591 13.8164C26.9653 13.8164 26.4505 14.1414 26.2412 14.6627C26.0318 15.184 26.0522 16.055 26.0522 16.6406V22.1136C26.0522 22.3203 25.8771 22.4874 25.6598 22.4874H23.619C23.413 22.4731 23.2523 22.3119 23.2523 22.1136L23.2497 16.6406C23.2497 15.4888 23.4419 13.7936 21.9942 13.7936C20.5301 13.7936 20.5874 15.4459 20.5874 16.6406V22.1136C20.5874 22.3203 20.4123 22.4874 20.195 22.4874L20.2069 22.4932ZM57.8648 11.245C60.8879 11.245 62.5245 13.8086 62.5245 17.0677C62.5245 20.2169 60.7161 22.7149 57.8648 22.7149C54.9023 22.7149 53.2796 20.1513 53.2796 16.9572C53.2796 13.7429 54.9162 11.2372 57.8648 11.2372V11.245ZM57.882 13.3451C56.381 13.3451 56.2855 15.3653 56.2855 16.6244C56.2855 17.8834 56.2657 20.5796 57.8642 20.5796C59.4429 20.5796 59.5179 18.4067 59.5179 17.0826C59.5179 16.2116 59.4804 15.1697 59.2151 14.3435C58.986 13.6246 58.5304 13.3445 57.8826 13.3445L57.882 13.3451ZM66.4456 22.4932H64.4166C64.2191 22.4789 64.0499 22.3177 64.0499 22.1195L64.0472 11.7923C64.0644 11.6025 64.2336 11.4556 64.4396 11.4556H66.329C66.5068 11.464 66.6529 11.583 66.6931 11.7442V13.3237H66.7306C67.3007 11.9119 68.0999 11.2385 69.5075 11.2385C70.4291 11.2385 71.3126 11.5635 71.886 12.4553C72.4127 13.2808 72.4127 14.6705 72.4127 15.6695V22.1695C72.3896 22.3515 72.2205 22.4945 72.0203 22.4945H69.9808C69.7945 22.4802 69.6398 22.345 69.62 22.1695V16.562C69.62 15.4329 69.7517 13.78 68.3448 13.78C67.8491 13.78 67.3936 14.1082 67.1598 14.6055C66.8735 15.236 66.8359 15.8645 66.8359 16.5607V22.1208C66.8333 22.3275 66.6556 22.4945 66.4377 22.4945L66.4456 22.4932ZM39.2979 17.5545C39.2979 18.3384 39.3176 18.9845 38.916 19.6878C38.5921 20.2533 38.0767 20.6017 37.5059 20.6017C36.7238 20.6017 36.2649 20.0135 36.2649 19.1444C36.2649 17.4297 37.8212 17.1184 39.2966 17.1184V17.5539L39.2979 17.5545ZM41.3506 22.4575C41.2156 22.5764 41.0214 22.5849 40.87 22.5056C40.1939 21.9511 40.0708 21.6931 39.7008 21.1646C38.5829 22.2904 37.7896 22.6271 36.342 22.6271C34.6257 22.6271 33.2926 21.5832 33.2926 19.4922C33.2926 17.8594 34.1866 16.7479 35.4651 16.2045C36.5711 15.7235 38.1155 15.639 39.2966 15.5057V15.2457C39.2966 14.7673 39.3341 14.2018 39.0464 13.7884C38.8002 13.4179 38.3242 13.2652 37.9029 13.2652C37.126 13.2652 36.4348 13.6584 36.2663 14.4742C36.232 14.6562 36.0971 14.8336 35.9107 14.8421L33.9358 14.6328C33.7699 14.5957 33.5835 14.4638 33.6329 14.2103C34.0859 11.8443 36.2531 11.1319 38.1886 11.1319C39.18 11.1319 40.4756 11.3919 41.2577 12.1329C42.2492 13.0468 42.1544 14.2662 42.1544 15.5935V18.7284C42.1544 19.6709 42.5494 20.0837 42.9227 20.5939C43.0517 20.7759 43.0807 20.993 42.9141 21.1289L41.3565 22.4705L41.3538 22.464L41.3506 22.4575ZM12.5873 17.561C12.5873 18.3449 12.6071 18.991 12.2055 19.6943C11.8816 20.2598 11.3694 20.6082 10.7953 20.6082C10.0132 20.6082 9.55768 20.02 9.55768 19.1509C9.55768 17.4362 11.114 17.1249 12.586 17.1249V17.5604L12.5873 17.561ZM14.64 22.464C14.5051 22.5829 14.3108 22.5914 14.1594 22.5121C13.4833 21.9576 13.3694 21.6996 12.9902 21.1711C11.8724 22.2969 11.0811 22.6336 9.63141 22.6336C7.91843 22.6343 6.58333 21.5904 6.58333 19.5C6.58333 17.8672 7.47998 16.7557 8.75583 16.2123C9.86183 15.7313 11.4063 15.6468 12.5873 15.5135V15.2535C12.5873 14.7751 12.6249 14.2096 12.3411 13.7962C12.0909 13.4257 11.6169 13.273 11.1976 13.273C10.4208 13.273 9.72753 13.6662 9.55175 14.482C9.51752 14.664 9.38256 14.8414 9.19954 14.8499L7.22191 14.6406C7.05601 14.6035 6.87299 14.4716 6.91908 14.2181C7.37464 11.8521 9.53924 11.1397 11.4747 11.1397C12.4662 11.1397 13.7618 11.3997 14.5439 12.1407C15.5353 13.0546 15.4405 14.274 15.4405 15.6013V18.7362C15.4405 19.6787 15.8355 20.0915 16.2088 20.6017C16.3405 20.7837 16.3694 21.0008 16.2022 21.1367L14.6486 22.4705L14.642 22.464" fill="#221F1F"/>
</svg>
